<svg id="my-svg" width="100%" xmlns="http://www.w3.org/2000/svg" xmlns:xlink="http://www.w3.org/1999/xlink" style="max-width: 558.984px; background-color: transparent;" viewBox="-100.984375 -34.70000076293945 558.984375 97.91793823242188" role="graphics-document document" aria-roledescription="gitGraph"><style>#my-svg{font-size:16px;fill:#fff;}@keyframes edge-animation-frame{from{stroke-dashoffset:0;}}@keyframes dash{to{stroke-dashoffset:0;}}#my-svg .edge-animation-slow{stroke-dasharray:9,5!important;stroke-dashoffset:900;animation:dash 50s linear infinite;stroke-linecap:round;}#my-svg .edge-animation-fast{stroke-dasharray:9,5!important;stroke-dashoffset:900;animation:dash 20s linear infinite;stroke-linecap:round;}#my-svg .error-icon{fill:hsl(214.0178571429, 100%, 61.0784313725%);}#my-svg .error-text{fill:rgb(198.5000000003, 112.5424107146, 0);stroke:rgb(198.5000000003, 112.5424107146, 0);}#my-svg .edge-thickness-normal{stroke-width:1px;}#my-svg .edge-thickness-thick{stroke-width:3.5px;}#my-svg .edge-pattern-solid{stroke-dasharray:0;}#my-svg .edge-thickness-invisible{stroke-width:0;fill:none;}#my-svg .edge-pattern-dashed{stroke-dasharray:3;}#my-svg .edge-pattern-dotted{stroke-dasharray:2;}#my-svg .marker{fill:#ff9e1f;stroke:#ff9e1f;}#my-svg .marker.cross{stroke:#ff9e1f;}#my-svg svg{font-size:16px;}#my-svg p{margin:0;}#my-svg .commit-id,#my-svg .commit-msg,#my-svg .branch-label{fill:lightgrey;color:lightgrey;font-family:'trebuchet ms',verdana,arial,sans-serif;font-family:var(--mermaid-font-family);}#my-svg .branch-label0{fill:#fff;}#my-svg .commit0{stroke:#ff9e1f;fill:#ff9e1f;}#my-svg .commit-highlight0{stroke:rgb(0, 41.7879464286, 96.5000000002);fill:rgb(0, 41.7879464286, 96.5000000002);}#my-svg .label0{fill:#ff9e1f;}#my-svg .arrow0{stroke:#ff9e1f;}#my-svg .branch-label1{fill:black;}#my-svg .commit1{stroke:#ff4444;fill:#ff4444;}#my-svg .commit-highlight1{stroke:rgb(0, 59.5000000002, 59.5000000002);fill:rgb(0, 59.5000000002, 59.5000000002);}#my-svg .label1{fill:#ff4444;}#my-svg .arrow1{stroke:#ff4444;}#my-svg .branch-label2{fill:black;}#my-svg .commit2{stroke:hsl(214.0178571429, 100%, 86.0784313725%);fill:hsl(214.0178571429, 100%, 86.0784313725%);}#my-svg .commit-highlight2{stroke:rgb(71.0000000002, 40.2544642859, 0);fill:rgb(71.0000000002, 40.2544642859, 0);}#my-svg .label2{fill:hsl(214.0178571429, 100%, 86.0784313725%);}#my-svg .arrow2{stroke:hsl(214.0178571429, 100%, 86.0784313725%);}#my-svg .branch-label3{fill:black;}#my-svg .commit3{stroke:hsl(4.0178571429, 100%, 81.0784313725%);fill:hsl(4.0178571429, 100%, 81.0784313725%);}#my-svg .commit-highlight3{stroke:rgb(0, 90.0379464287, 96.5000000002);fill:rgb(0, 90.0379464287, 96.5000000002);}#my-svg .label3{fill:hsl(4.0178571429, 100%, 81.0784313725%);}#my-svg .arrow3{stroke:hsl(4.0178571429, 100%, 81.0784313725%);}#my-svg .branch-label4{fill:black;}#my-svg .commit4{stroke:hsl(-25.9821428571, 100%, 81.0784313725%);fill:hsl(-25.9821428571, 100%, 81.0784313725%);}#my-svg .commit-highlight4{stroke:rgb(0, 96.5000000002, 54.7120535716);fill:rgb(0, 96.5000000002, 54.7120535716);}#my-svg .label4{fill:hsl(-25.9821428571, 100%, 81.0784313725%);}#my-svg .arrow4{stroke:hsl(-25.9821428571, 100%, 81.0784313725%);}#my-svg .branch-label5{fill:black;}#my-svg .commit5{stroke:hsl(-55.9821428571, 100%, 81.0784313725%);fill:hsl(-55.9821428571, 100%, 81.0784313725%);}#my-svg .commit-highlight5{stroke:rgb(0, 96.5000000002, 6.4620535715);fill:rgb(0, 96.5000000002, 6.4620535715);}#my-svg .label5{fill:hsl(-55.9821428571, 100%, 81.0784313725%);}#my-svg .arrow5{stroke:hsl(-55.9821428571, 100%, 81.0784313725%);}#my-svg .branch-label6{fill:black;}#my-svg .commit6{stroke:hsl(94.0178571429, 100%, 81.0784313725%);fill:hsl(94.0178571429, 100%, 81.0784313725%);}#my-svg .commit-highlight6{stroke:rgb(54.7120535716, 0, 96.5000000002);fill:rgb(54.7120535716, 0, 96.5000000002);}#my-svg .label6{fill:hsl(94.0178571429, 100%, 81.0784313725%);}#my-svg .arrow6{stroke:hsl(94.0178571429, 100%, 81.0784313725%);}#my-svg .branch-label7{fill:black;}#my-svg .commit7{stroke:hsl(154.0178571429, 100%, 81.0784313725%);fill:hsl(154.0178571429, 100%, 81.0784313725%);}#my-svg .commit-highlight7{stroke:rgb(96.5000000002, 0, 41.7879464286);fill:rgb(96.5000000002, 0, 41.7879464286);}#my-svg .label7{fill:hsl(154.0178571429, 100%, 81.0784313725%);}#my-svg .arrow7{stroke:hsl(154.0178571429, 100%, 81.0784313725%);}#my-svg .branch{stroke-width:1;stroke:#ff9e1f;stroke-dasharray:2;}#my-svg .commit-label{font-size:10px;fill:#fff;}#my-svg .commit-label-bkg{font-size:10px;fill:#111111;opacity:0.5;}#my-svg .tag-label{font-size:10px;fill:#fff;}#my-svg .tag-label-bkg{fill:#3a1010;stroke:#ff4444;}#my-svg .tag-hole{fill:#fff;}#my-svg .commit-merge{stroke:#ff9e1f;fill:#ff9e1f;}#my-svg .commit-reverse{stroke:#ff9e1f;fill:#ff9e1f;stroke-width:3;}#my-svg .commit-highlight-inner{stroke:#ff9e1f;fill:#ff9e1f;}#my-svg .arrow{stroke-width:8;stroke-linecap:round;fill:none;}#my-svg .gitTitleText{text-anchor:middle;font-size:18px;fill:#fff;}#my-svg :root{--mermaid-font-family:"trebuchet ms",verdana,arial,sans-serif;}</style><g/><g class="commit-bullets"/><g class="commit-labels"/><g><line x1="0" y1="0" x2="450" y2="0" class="branch branch0"/><rect class="branchLabelBkg label0" rx="4" ry="4" x="-73.984375" y="-1.5" width="57.984375" height="23" transform="translate(-19, -9.5)"/><g class="branchLabel"><g class="label branch-label0" transform="translate(-83.984375, -10.5)"><text><tspan xml:space="preserve" dy="1em" x="0" class="row">main</tspan></text></g></g></g><g class="commit-arrows"><path d="M 10 0 L 60 0" class="arrow arrow0"/><path d="M 60 0 L 110 0" class="arrow arrow0"/><path d="M 110 0 L 160 0" class="arrow arrow0"/><path d="M 160 0 L 210 0" class="arrow arrow0"/><path d="M 210 0 L 260 0" class="arrow arrow0"/><path d="M 260 0 L 310 0" class="arrow arrow0"/><path d="M 310 0 L 360 0" class="arrow arrow0"/><path d="M 360 0 L 410 0" class="arrow arrow0"/></g><g class="commit-bullets"><circle cx="10" cy="0" r="10" class="commit v5.17 commit0"/><rect x="50" y="-10" width="20" height="20" class="commit 56a4d67 commit-highlight0 commit-highlight-outer"/><rect x="54" y="-6" width="12" height="12" class="commit 56a4d67 commit0 commit-highlight-inner"/><circle cx="110" cy="0" r="10" class="commit v5.18 commit0"/><circle cx="160" cy="0" r="10" class="commit 5.19 commit0"/><circle cx="210" cy="0" r="10" class="commit 6.1 commit0"/><circle cx="260" cy="0" r="10" class="commit 6.5 commit0"/><circle cx="310" cy="0" r="10" class="commit 6.8 commit0"/><rect x="350" y="-10" width="20" height="20" class="commit bc2ff4c commit-highlight0 commit-highlight-outer"/><rect x="354" y="-6" width="12" height="12" class="commit bc2ff4c commit0 commit-highlight-inner"/><circle cx="410" cy="0" r="10" class="commit v6.9 commit0"/></g><g class="commit-labels"><g transform="translate(-22.01125, 19.583750000000002) rotate(-45, 0, 0)"><rect class="commit-label-bkg" x="-6.09375" y="13.5" width="32.1875" height="15"/><text x="-4.09375" y="25" class="commit-label">v5.17</text></g><polygon class="tag-label-bkg" points="-14.46875,-17.2  &#10;      -14.46875,-21.2&#10;      -6.46875,-26.7&#10;      26.46875,-26.7&#10;      26.46875,-11.7&#10;      -6.46875,-11.7"/><circle cy="-19.2" cx="-10.46875" r="1.5" class="tag-hole"/><text y="-16" class="tag-label" x="-2.46875">good</text><g transform="translate(-28.1328125, 25.0609375) rotate(-45, 50, 0)"><rect class="commit-label-bkg" x="35.8515625" y="13.5" width="48.296875" height="15"/><text x="37.8515625" y="25" class="commit-label">56a4d67</text></g><g transform="translate(-22.01125, 19.583750000000002) rotate(-45, 100, 0)"><rect class="commit-label-bkg" x="93.90625" y="13.5" width="32.1875" height="15"/><text x="95.90625" y="25" class="commit-label">v5.18</text></g><polygon class="tag-label-bkg" points="72.6953125,-17.2  &#10;      72.6953125,-21.2&#10;      80.6953125,-26.7&#10;      139.3046875,-26.7&#10;      139.3046875,-11.7&#10;      80.6953125,-11.7"/><circle cy="-19.2" cx="76.6953125" r="1.5" class="tag-hole"/><text y="-16" class="tag-label" x="84.6953125">баг здесь</text><g transform="translate(-19.760937499999997, 17.5703125) rotate(-45, 150, 0)"><rect class="commit-label-bkg" x="146.8671875" y="13.5" width="26.265625" height="15"/><text x="148.8671875" y="25" class="commit-label">5.19</text></g><g transform="translate(-17.344375, 15.408125) rotate(-45, 200, 0)"><rect class="commit-label-bkg" x="200.046875" y="13.5" width="19.90625" height="15"/><text x="202.046875" y="25" class="commit-label">6.1</text></g><g transform="translate(-17.344375, 15.408125) rotate(-45, 250, 0)"><rect class="commit-label-bkg" x="250.046875" y="13.5" width="19.90625" height="15"/><text x="252.046875" y="25" class="commit-label">6.5</text></g><g transform="translate(-17.344375, 15.408125) rotate(-45, 300, 0)"><rect class="commit-label-bkg" x="300.046875" y="13.5" width="19.90625" height="15"/><text x="302.046875" y="25" class="commit-label">6.8</text></g><g transform="translate(-25.348125, 22.569375) rotate(-45, 350, 0)"><rect class="commit-label-bkg" x="339.515625" y="13.5" width="40.96875" height="15"/><text x="341.515625" y="25" class="commit-label">bc2ff4c</text></g><g transform="translate(-19.5946875, 17.4215625) rotate(-45, 400, 0)"><rect class="commit-label-bkg" x="397.0859375" y="13.5" width="25.828125" height="15"/><text x="399.0859375" y="25" class="commit-label">v6.9</text></g><polygon class="tag-label-bkg" points="384.703125,-17.2  &#10;      384.703125,-21.2&#10;      392.703125,-26.7&#10;      427.296875,-26.7&#10;      427.296875,-11.7&#10;      392.703125,-11.7"/><circle cy="-19.2" cx="388.703125" r="1.5" class="tag-hole"/><text y="-16" class="tag-label" x="396.703125">фикс</text></g></svg>