<svg id="my-svg" width="100%" xmlns="http://www.w3.org/2000/svg" xmlns:xlink="http://www.w3.org/1999/xlink" style="max-width: 558.984px; background-color: transparent;" viewBox="-100.984375 -34.70000076293945 558.984375 256.0168151855469" role="graphics-document document" aria-roledescription="gitGraph"><style>#my-svg{font-size:16px;fill:#fff;}@keyframes edge-animation-frame{from{stroke-dashoffset:0;}}@keyframes dash{to{stroke-dashoffset:0;}}#my-svg .edge-animation-slow{stroke-dasharray:9,5!important;stroke-dashoffset:900;animation:dash 50s linear infinite;stroke-linecap:round;}#my-svg .edge-animation-fast{stroke-dasharray:9,5!important;stroke-dashoffset:900;animation:dash 20s linear infinite;stroke-linecap:round;}#my-svg .error-icon{fill:hsl(214.0178571429, 100%, 61.0784313725%);}#my-svg .error-text{fill:rgb(198.5000000003, 112.5424107146, 0);stroke:rgb(198.5000000003, 112.5424107146, 0);}#my-svg .edge-thickness-normal{stroke-width:1px;}#my-svg .edge-thickness-thick{stroke-width:3.5px;}#my-svg .edge-pattern-solid{stroke-dasharray:0;}#my-svg .edge-thickness-invisible{stroke-width:0;fill:none;}#my-svg .edge-pattern-dashed{stroke-dasharray:3;}#my-svg .edge-pattern-dotted{stroke-dasharray:2;}#my-svg .marker{fill:#ff9e1f;stroke:#ff9e1f;}#my-svg .marker.cross{stroke:#ff9e1f;}#my-svg svg{font-size:16px;}#my-svg p{margin:0;}#my-svg .commit-id,#my-svg .commit-msg,#my-svg .branch-label{fill:lightgrey;color:lightgrey;font-family:'trebuchet ms',verdana,arial,sans-serif;font-family:var(--mermaid-font-family);}#my-svg .branch-label0{fill:#fff;}#my-svg .commit0{stroke:#ff9e1f;fill:#ff9e1f;}#my-svg .commit-highlight0{stroke:rgb(0, 41.7879464286, 96.5000000002);fill:rgb(0, 41.7879464286, 96.5000000002);}#my-svg .label0{fill:#ff9e1f;}#my-svg .arrow0{stroke:#ff9e1f;}#my-svg .branch-label1{fill:#fff;}#my-svg .commit1{stroke:#6e9fff;fill:#6e9fff;}#my-svg .commit-highlight1{stroke:rgb(17.4999999999, 11.5862068965, 0);fill:rgb(17.4999999999, 11.5862068965, 0);}#my-svg .label1{fill:#6e9fff;}#my-svg .arrow1{stroke:#6e9fff;}#my-svg .branch-label2{fill:#fff;}#my-svg .commit2{stroke:#ff4444;fill:#ff4444;}#my-svg .commit-highlight2{stroke:rgb(0, 59.5000000002, 59.5000000002);fill:rgb(0, 59.5000000002, 59.5000000002);}#my-svg .label2{fill:#ff4444;}#my-svg .arrow2{stroke:#ff4444;}#my-svg .branch-label3{fill:black;}#my-svg .commit3{stroke:hsl(4.0178571429, 100%, 81.0784313725%);fill:hsl(4.0178571429, 100%, 81.0784313725%);}#my-svg .commit-highlight3{stroke:rgb(0, 90.0379464287, 96.5000000002);fill:rgb(0, 90.0379464287, 96.5000000002);}#my-svg .label3{fill:hsl(4.0178571429, 100%, 81.0784313725%);}#my-svg .arrow3{stroke:hsl(4.0178571429, 100%, 81.0784313725%);}#my-svg .branch-label4{fill:black;}#my-svg .commit4{stroke:hsl(-25.9821428571, 100%, 81.0784313725%);fill:hsl(-25.9821428571, 100%, 81.0784313725%);}#my-svg .commit-highlight4{stroke:rgb(0, 96.5000000002, 54.7120535716);fill:rgb(0, 96.5000000002, 54.7120535716);}#my-svg .label4{fill:hsl(-25.9821428571, 100%, 81.0784313725%);}#my-svg .arrow4{stroke:hsl(-25.9821428571, 100%, 81.0784313725%);}#my-svg .branch-label5{fill:black;}#my-svg .commit5{stroke:hsl(-55.9821428571, 100%, 81.0784313725%);fill:hsl(-55.9821428571, 100%, 81.0784313725%);}#my-svg .commit-highlight5{stroke:rgb(0, 96.5000000002, 6.4620535715);fill:rgb(0, 96.5000000002, 6.4620535715);}#my-svg .label5{fill:hsl(-55.9821428571, 100%, 81.0784313725%);}#my-svg .arrow5{stroke:hsl(-55.9821428571, 100%, 81.0784313725%);}#my-svg .branch-label6{fill:black;}#my-svg .commit6{stroke:hsl(94.0178571429, 100%, 81.0784313725%);fill:hsl(94.0178571429, 100%, 81.0784313725%);}#my-svg .commit-highlight6{stroke:rgb(54.7120535716, 0, 96.5000000002);fill:rgb(54.7120535716, 0, 96.5000000002);}#my-svg .label6{fill:hsl(94.0178571429, 100%, 81.0784313725%);}#my-svg .arrow6{stroke:hsl(94.0178571429, 100%, 81.0784313725%);}#my-svg .branch-label7{fill:black;}#my-svg .commit7{stroke:hsl(154.0178571429, 100%, 81.0784313725%);fill:hsl(154.0178571429, 100%, 81.0784313725%);}#my-svg .commit-highlight7{stroke:rgb(96.5000000002, 0, 41.7879464286);fill:rgb(96.5000000002, 0, 41.7879464286);}#my-svg .label7{fill:hsl(154.0178571429, 100%, 81.0784313725%);}#my-svg .arrow7{stroke:hsl(154.0178571429, 100%, 81.0784313725%);}#my-svg .branch{stroke-width:1;stroke:#ff9e1f;stroke-dasharray:2;}#my-svg .commit-label{font-size:10px;fill:#fff;}#my-svg .commit-label-bkg{font-size:10px;fill:#111111;opacity:0.5;}#my-svg .tag-label{font-size:10px;fill:#fff;}#my-svg .tag-label-bkg{fill:#3a1010;stroke:#ff4444;}#my-svg .tag-hole{fill:#fff;}#my-svg .commit-merge{stroke:#ff9e1f;fill:#ff9e1f;}#my-svg .commit-reverse{stroke:#ff9e1f;fill:#ff9e1f;stroke-width:3;}#my-svg .commit-highlight-inner{stroke:#ff9e1f;fill:#ff9e1f;}#my-svg .arrow{stroke-width:8;stroke-linecap:round;fill:none;}#my-svg .gitTitleText{text-anchor:middle;font-size:18px;fill:#fff;}#my-svg :root{--mermaid-font-family:"trebuchet ms",verdana,arial,sans-serif;}</style><g/><g class="commit-bullets"/><g class="commit-labels"/><g><line x1="0" y1="0" x2="450" y2="0" class="branch branch0"/><rect class="branchLabelBkg label0" rx="4" ry="4" x="-73.984375" y="-1.5" width="57.984375" height="23" transform="translate(-19, -9.5)"/><g class="branchLabel"><g class="label branch-label0" transform="translate(-83.984375, -10.5)"><text><tspan xml:space="preserve" dy="1em" x="0" class="row">main</tspan></text></g></g><line x1="0" y1="90" x2="450" y2="90" class="branch branch1"/><rect class="branchLabelBkg label1" rx="4" ry="4" x="-60.265625" y="-1.5" width="44.265625" height="23" transform="translate(-19, 80.5)"/><g class="branchLabel"><g class="label branch-label1" transform="translate(-70.265625, 79.5)"><text><tspan xml:space="preserve" dy="1em" x="0" class="row">net</tspan></text></g></g><line x1="0" y1="180" x2="450" y2="180" class="branch branch2"/><rect class="branchLabelBkg label2" rx="4" ry="4" x="-65.171875" y="-1.5" width="49.171875" height="23" transform="translate(-19, 170.5)"/><g class="branchLabel"><g class="label branch-label2" transform="translate(-75.171875, 169.5)"><text><tspan xml:space="preserve" dy="1em" x="0" class="row">mm</tspan></text></g></g></g><g class="commit-arrows"><path d="M 10 0 L 10 70 A 20 20, 0, 0, 0, 30 90 L 60 90" class="arrow arrow1"/><path d="M 60 90 L 110 90" class="arrow arrow1"/><path d="M 110 90 L 160 90" class="arrow arrow1"/><path d="M 10 0 L 10 160 A 20 20, 0, 0, 0, 30 180 L 210 180" class="arrow arrow2"/><path d="M 210 180 L 260 180" class="arrow arrow2"/><path d="M 10 0 L 310 0" class="arrow arrow0"/><path d="M 160 90 L 290 90 A 20 20, 0, 0, 0, 310 70 L 310 0" class="arrow arrow1"/><path d="M 310 0 L 360 0" class="arrow arrow0"/><path d="M 260 180 L 340 180 A 20 20, 0, 0, 0, 360 160 L 360 0" class="arrow arrow2"/><path d="M 360 0 L 410 0" class="arrow arrow0"/></g><g class="commit-bullets"><circle cx="10" cy="0" r="10" class="commit v5.17 commit0"/><circle cx="60" cy="90" r="10" class="commit a1 commit1"/><circle cx="110" cy="90" r="10" class="commit a2 commit1"/><circle cx="160" cy="90" r="10" class="commit a3 commit1"/><circle cx="210" cy="180" r="10" class="commit b1 commit2"/><rect x="250" y="170" width="20" height="20" class="commit b2 commit-highlight2 commit-highlight-outer"/><rect x="254" y="174" width="12" height="12" class="commit b2 commit2 commit-highlight-inner"/><circle cx="310" cy="0" r="9" class="commit 6-b1ab3a0 commit0"/><circle cx="310" cy="0" r="6" class="commit commit-merge 6-b1ab3a0 commit0"/><circle cx="360" cy="0" r="9" class="commit 7-0b390cc commit0"/><circle cx="360" cy="0" r="6" class="commit commit-merge 7-0b390cc commit0"/><circle cx="410" cy="0" r="10" class="commit ... commit0"/></g><g class="commit-labels"><g transform="translate(-22.01125, 19.583750000000002) rotate(-45, 0, 0)"><rect class="commit-label-bkg" x="-6.09375" y="13.5" width="32.1875" height="15"/><text x="-4.09375" y="25" class="commit-label">v5.17</text></g><g transform="translate(-16.05, 14.25) rotate(-45, 50, 90)"><rect class="commit-label-bkg" x="51.75" y="103.5" width="16.5" height="15"/><text x="53.75" y="115" class="commit-label">a1</text></g><g transform="translate(-16.05, 14.25) rotate(-45, 100, 90)"><rect class="commit-label-bkg" x="101.75" y="103.5" width="16.5" height="15"/><text x="103.75" y="115" class="commit-label">a2</text></g><g transform="translate(-16.05, 14.25) rotate(-45, 150, 90)"><rect class="commit-label-bkg" x="151.75" y="103.5" width="16.5" height="15"/><text x="153.75" y="115" class="commit-label">a3</text></g><g transform="translate(-16.133125, 14.324375) rotate(-45, 200, 180)"><rect class="commit-label-bkg" x="201.640625" y="193.5" width="16.71875" height="15"/><text x="203.640625" y="205" class="commit-label">b1</text></g><g transform="translate(-16.133125, 14.324375) rotate(-45, 250, 180)"><rect class="commit-label-bkg" x="251.640625" y="193.5" width="16.71875" height="15"/><text x="253.640625" y="205" class="commit-label">b2</text></g><polygon class="tag-label-bkg" points="333.90625,-17.2  &#10;      333.90625,-21.2&#10;      341.90625,-26.7&#10;      378.09375,-26.7&#10;      378.09375,-11.7&#10;      341.90625,-11.7"/><circle cy="-19.2" cx="337.90625" r="1.5" class="tag-hole"/><text y="-16" class="tag-label" x="345.90625">v5.18</text><g transform="translate(-14.9278125, 13.2459375) rotate(-45, 400, 0)"><rect class="commit-label-bkg" x="403.2265625" y="13.5" width="13.546875" height="15"/><text x="405.2265625" y="25" class="commit-label">...</text></g></g></svg>