<svg id="my-svg" width="100%" xmlns="http://www.w3.org/2000/svg" xmlns:xlink="http://www.w3.org/1999/xlink" style="max-width: 2190px; background-color: transparent;" viewBox="100 -63 2190 689.4000244140625" role="graphics-document document" aria-roledescription="timeline"><style>#my-svg{font-family:"trebuchet ms",verdana,arial,sans-serif;font-size:16px;fill:#ccc;}@keyframes edge-animation-frame{from{stroke-dashoffset:0;}}@keyframes dash{to{stroke-dashoffset:0;}}#my-svg .edge-animation-slow{stroke-dasharray:9,5!important;stroke-dashoffset:900;animation:dash 50s linear infinite;stroke-linecap:round;}#my-svg .edge-animation-fast{stroke-dasharray:9,5!important;stroke-dashoffset:900;animation:dash 20s linear infinite;stroke-linecap:round;}#my-svg .error-icon{fill:#a44141;}#my-svg .error-text{fill:#ddd;stroke:#ddd;}#my-svg .edge-thickness-normal{stroke-width:1px;}#my-svg .edge-thickness-thick{stroke-width:3.5px;}#my-svg .edge-pattern-solid{stroke-dasharray:0;}#my-svg .edge-thickness-invisible{stroke-width:0;fill:none;}#my-svg .edge-pattern-dashed{stroke-dasharray:3;}#my-svg .edge-pattern-dotted{stroke-dasharray:2;}#my-svg .marker{fill:lightgrey;stroke:lightgrey;}#my-svg .marker.cross{stroke:lightgrey;}#my-svg svg{font-family:"trebuchet ms",verdana,arial,sans-serif;font-size:16px;}#my-svg p{margin:0;}#my-svg .edge{stroke-width:3;}#my-svg .section--1 rect,#my-svg .section--1 path,#my-svg .section--1 circle,#my-svg .section--1 path{fill:#2a2a4e;}#my-svg .section--1 text{fill:#eee;}#my-svg .node-icon--1{font-size:40px;color:#eee;}#my-svg .section-edge--1{stroke:#2a2a4e;}#my-svg .edge-depth--1{stroke-width:17;}#my-svg .section--1 line{stroke:#d5d5b1;stroke-width:3;}#my-svg .lineWrapper line{stroke:#eee;}#my-svg .disabled,#my-svg .disabled circle,#my-svg .disabled text{fill:lightgray;}#my-svg .disabled text{fill:#efefef;}#my-svg .section-0 rect,#my-svg .section-0 path,#my-svg .section-0 circle,#my-svg .section-0 path{fill:#2a2a4e;}#my-svg .section-0 text{fill:#eee;}#my-svg .node-icon-0{font-size:40px;color:#eee;}#my-svg .section-edge-0{stroke:#2a2a4e;}#my-svg .edge-depth-0{stroke-width:14;}#my-svg .section-0 line{stroke:#d5d5b1;stroke-width:3;}#my-svg .lineWrapper line{stroke:#eee;}#my-svg .disabled,#my-svg .disabled circle,#my-svg .disabled text{fill:lightgray;}#my-svg .disabled text{fill:#efefef;}#my-svg .section-1 rect,#my-svg .section-1 path,#my-svg .section-1 circle,#my-svg .section-1 path{fill:#2a2a4e;}#my-svg .section-1 text{fill:#eee;}#my-svg .node-icon-1{font-size:40px;color:#eee;}#my-svg .section-edge-1{stroke:#2a2a4e;}#my-svg .edge-depth-1{stroke-width:11;}#my-svg .section-1 line{stroke:#d5d5b1;stroke-width:3;}#my-svg .lineWrapper line{stroke:#eee;}#my-svg .disabled,#my-svg .disabled circle,#my-svg .disabled text{fill:lightgray;}#my-svg .disabled text{fill:#efefef;}#my-svg .section-2 rect,#my-svg .section-2 path,#my-svg .section-2 circle,#my-svg .section-2 path{fill:#3a2a1e;}#my-svg .section-2 text{fill:#FFD02F;}#my-svg .node-icon-2{font-size:40px;color:#FFD02F;}#my-svg .section-edge-2{stroke:#3a2a1e;}#my-svg .edge-depth-2{stroke-width:8;}#my-svg .section-2 line{stroke:#c5d5e1;stroke-width:3;}#my-svg .lineWrapper line{stroke:#FFD02F;}#my-svg .disabled,#my-svg .disabled circle,#my-svg .disabled text{fill:lightgray;}#my-svg .disabled text{fill:#efefef;}#my-svg .section-3 rect,#my-svg .section-3 path,#my-svg .section-3 circle,#my-svg .section-3 path{fill:#4f2f1b;}#my-svg .section-3 text{fill:lightgrey;}#my-svg .node-icon-3{font-size:40px;color:lightgrey;}#my-svg .section-edge-3{stroke:#4f2f1b;}#my-svg .edge-depth-3{stroke-width:5;}#my-svg .section-3 line{stroke:#b0d0e4;stroke-width:3;}#my-svg .lineWrapper line{stroke:lightgrey;}#my-svg .disabled,#my-svg .disabled circle,#my-svg .disabled text{fill:lightgray;}#my-svg .disabled text{fill:#efefef;}#my-svg .section-4 rect,#my-svg .section-4 path,#my-svg .section-4 circle,#my-svg .section-4 path{fill:#6e0a0a;}#my-svg .section-4 text{fill:lightgrey;}#my-svg .node-icon-4{font-size:40px;color:lightgrey;}#my-svg .section-edge-4{stroke:#6e0a0a;}#my-svg .edge-depth-4{stroke-width:2;}#my-svg .section-4 line{stroke:#91f5f5;stroke-width:3;}#my-svg .lineWrapper line{stroke:lightgrey;}#my-svg .disabled,#my-svg .disabled circle,#my-svg .disabled text{fill:lightgray;}#my-svg .disabled text{fill:#efefef;}#my-svg .section-5 rect,#my-svg .section-5 path,#my-svg .section-5 circle,#my-svg .section-5 path{fill:#3b0048;}#my-svg .section-5 text{fill:lightgrey;}#my-svg .node-icon-5{font-size:40px;color:lightgrey;}#my-svg .section-edge-5{stroke:#3b0048;}#my-svg .edge-depth-5{stroke-width:-1;}#my-svg .section-5 line{stroke:#c4ffb7;stroke-width:3;}#my-svg .lineWrapper line{stroke:lightgrey;}#my-svg .disabled,#my-svg .disabled circle,#my-svg .disabled text{fill:lightgray;}#my-svg .disabled text{fill:#efefef;}#my-svg .section-6 rect,#my-svg .section-6 path,#my-svg .section-6 circle,#my-svg .section-6 path{fill:#995a01;}#my-svg .section-6 text{fill:lightgrey;}#my-svg .node-icon-6{font-size:40px;color:lightgrey;}#my-svg .section-edge-6{stroke:#995a01;}#my-svg .edge-depth-6{stroke-width:-4;}#my-svg .section-6 line{stroke:#66a5fe;stroke-width:3;}#my-svg .lineWrapper line{stroke:lightgrey;}#my-svg .disabled,#my-svg .disabled circle,#my-svg .disabled text{fill:lightgray;}#my-svg .disabled text{fill:#efefef;}#my-svg .section-7 rect,#my-svg .section-7 path,#my-svg .section-7 circle,#my-svg .section-7 path{fill:#154706;}#my-svg .section-7 text{fill:lightgrey;}#my-svg .node-icon-7{font-size:40px;color:lightgrey;}#my-svg .section-edge-7{stroke:#154706;}#my-svg .edge-depth-7{stroke-width:-7;}#my-svg .section-7 line{stroke:#eab8f9;stroke-width:3;}#my-svg .lineWrapper line{stroke:lightgrey;}#my-svg .disabled,#my-svg .disabled circle,#my-svg .disabled text{fill:lightgray;}#my-svg .disabled text{fill:#efefef;}#my-svg .section-8 rect,#my-svg .section-8 path,#my-svg .section-8 circle,#my-svg .section-8 path{fill:#161722;}#my-svg .section-8 text{fill:lightgrey;}#my-svg .node-icon-8{font-size:40px;color:lightgrey;}#my-svg .section-edge-8{stroke:#161722;}#my-svg .edge-depth-8{stroke-width:-10;}#my-svg .section-8 line{stroke:#e9e8dd;stroke-width:3;}#my-svg .lineWrapper line{stroke:lightgrey;}#my-svg .disabled,#my-svg .disabled circle,#my-svg .disabled text{fill:lightgray;}#my-svg .disabled text{fill:#efefef;}#my-svg .section-9 rect,#my-svg .section-9 path,#my-svg .section-9 circle,#my-svg .section-9 path{fill:#00296f;}#my-svg .section-9 text{fill:lightgrey;}#my-svg .node-icon-9{font-size:40px;color:lightgrey;}#my-svg .section-edge-9{stroke:#00296f;}#my-svg .edge-depth-9{stroke-width:-13;}#my-svg .section-9 line{stroke:#ffd690;stroke-width:3;}#my-svg .lineWrapper line{stroke:lightgrey;}#my-svg .disabled,#my-svg .disabled circle,#my-svg .disabled text{fill:lightgray;}#my-svg .disabled text{fill:#efefef;}#my-svg .section-10 rect,#my-svg .section-10 path,#my-svg .section-10 circle,#my-svg .section-10 path{fill:#01629c;}#my-svg .section-10 text{fill:lightgrey;}#my-svg .node-icon-10{font-size:40px;color:lightgrey;}#my-svg .section-edge-10{stroke:#01629c;}#my-svg .edge-depth-10{stroke-width:-16;}#my-svg .section-10 line{stroke:#fe9d63;stroke-width:3;}#my-svg .lineWrapper line{stroke:lightgrey;}#my-svg .disabled,#my-svg .disabled circle,#my-svg .disabled text{fill:lightgray;}#my-svg .disabled text{fill:#efefef;}#my-svg .section-root rect,#my-svg .section-root path,#my-svg .section-root circle{fill:hsl(180, 1.5873015873%, 48.3529411765%);}#my-svg .section-root text{fill:#2c2c2c;}#my-svg .icon-container{height:100%;display:flex;justify-content:center;align-items:center;}#my-svg .edge{fill:none;}#my-svg .eventWrapper{filter:brightness(120%);}#my-svg :root{--mermaid-font-family:"trebuchet ms",verdana,arial,sans-serif;}</style><g/><g/><defs><marker id="arrowhead" refX="5" refY="2" markerWidth="6" markerHeight="4" orient="auto"><path d="M 0,0 V 4 L6,2 Z"/></marker></defs><g transform="translate(200, 50)"><g class="timeline-node section--1"><g><path id="node-undefined" class="node-bkg node-undefined" d="M0 62.8 v-57.8 q0,-5 5,-5 h380 q5,0 5,5 v62.8 H0 Z"/><line class="node-line--1" x1="0" y1="67.8" x2="390" y2="67.8"/></g><g transform="translate(195, 10)"><text dy="1em" alignment-baseline="middle" dominant-baseline="middle" text-anchor="middle"><tspan x="0" dy="1em">Декабрь-Январь</tspan></text></g></g></g><g class="taskWrapper" transform="translate(200, 167.8)"><g class="timeline-node section--1"><g><path id="node-undefined" class="node-bkg node-undefined" d="M0 62.8 v-57.8 q0,-5 5,-5 h180 q5,0 5,5 v62.8 H0 Z"/><line class="node-line--1" x1="0" y1="67.8" x2="190" y2="67.8"/></g><g transform="translate(95, 10)"><text dy="1em" alignment-baseline="middle" dominant-baseline="middle" text-anchor="middle"><tspan x="0" dy="1em">30   дек</tspan></text></g></g></g><g class="lineWrapper"><line x1="295" y1="235.60000000000002" x2="295" y2="576.3999969482422" stroke-width="2" stroke="black" marker-end="url(#arrowhead)" stroke-dasharray="5,5"/></g><g class="eventWrapper" transform="translate(200, 367.8)"><g class="timeline-node section--1"><g><path id="node-undefined" class="node-bkg node-undefined" d="M0 45 v-40 q0,-5 5,-5 h180 q5,0 5,5 v45 H0 Z"/><line class="node-line--1" x1="0" y1="50" x2="190" y2="50"/></g><g transform="translate(95, 10)"><text dy="1em" alignment-baseline="middle" dominant-baseline="middle" text-anchor="middle"><tspan x="0" dy="1em">segfault</tspan></text></g></g></g><g class="eventWrapper" transform="translate(200, 427.8)"><g class="timeline-node section--1"><g><path id="node-undefined" class="node-bkg node-undefined" d="M0 60.39999847412109 v-55.39999847412109 q0,-5 5,-5 h180 q5,0 5,5 v60.39999847412109 H0 Z"/><line class="node-line--1" x1="0" y1="65.39999847412109" x2="190" y2="65.39999847412109"/></g><g transform="translate(95, 10)"><text dy="1em" alignment-baseline="middle" dominant-baseline="middle" text-anchor="middle"><tspan x="0" dy="1em">безумная</tspan><tspan x="0" dy="1.1em">гипотеза</tspan></text></g></g></g><g class="taskWrapper" transform="translate(400, 167.8)"><g class="timeline-node section--1"><g><path id="node-undefined" class="node-bkg node-undefined" d="M0 62.8 v-57.8 q0,-5 5,-5 h180 q5,0 5,5 v62.8 H0 Z"/><line class="node-line--1" x1="0" y1="67.8" x2="190" y2="67.8"/></g><g transform="translate(95, 10)"><text dy="1em" alignment-baseline="middle" dominant-baseline="middle" text-anchor="middle"><tspan x="0" dy="1em">7   янв</tspan></text></g></g></g><g class="lineWrapper"><line x1="495" y1="235.60000000000002" x2="495" y2="576.3999969482422" stroke-width="2" stroke="black" marker-end="url(#arrowhead)" stroke-dasharray="5,5"/></g><g class="eventWrapper" transform="translate(400, 367.8)"><g class="timeline-node section--1"><g><path id="node-undefined" class="node-bkg node-undefined" d="M0 45 v-40 q0,-5 5,-5 h180 q5,0 5,5 v45 H0 Z"/><line class="node-line--1" x1="0" y1="50" x2="190" y2="50"/></g><g transform="translate(95, 10)"><text dy="1em" alignment-baseline="middle" dominant-baseline="middle" text-anchor="middle"><tspan x="0" dy="1em">пинг-понг</tspan></text></g></g></g><g transform="translate(600, 50)"><g class="timeline-node section-0"><g><path id="node-undefined" class="node-bkg node-undefined" d="M0 62.8 v-57.8 q0,-5 5,-5 h380 q5,0 5,5 v62.8 H0 Z"/><line class="node-line-0" x1="0" y1="67.8" x2="390" y2="67.8"/></g><g transform="translate(195, 10)"><text dy="1em" alignment-baseline="middle" dominant-baseline="middle" text-anchor="middle"><tspan x="0" dy="1em">Зацепки</tspan></text></g></g></g><g class="taskWrapper" transform="translate(600, 167.8)"><g class="timeline-node section-0"><g><path id="node-undefined" class="node-bkg node-undefined" d="M0 62.8 v-57.8 q0,-5 5,-5 h180 q5,0 5,5 v62.8 H0 Z"/><line class="node-line-0" x1="0" y1="67.8" x2="190" y2="67.8"/></g><g transform="translate(95, 10)"><text dy="1em" alignment-baseline="middle" dominant-baseline="middle" text-anchor="middle"><tspan x="0" dy="1em">dmesg</tspan></text></g></g></g><g class="lineWrapper"><line x1="695" y1="235.60000000000002" x2="695" y2="576.3999969482422" stroke-width="2" stroke="black" marker-end="url(#arrowhead)" stroke-dasharray="5,5"/></g><g class="eventWrapper" transform="translate(600, 367.8)"><g class="timeline-node section-0"><g><path id="node-undefined" class="node-bkg node-undefined" d="M0 60.39999847412109 v-55.39999847412109 q0,-5 5,-5 h180 q5,0 5,5 v60.39999847412109 H0 Z"/><line class="node-line-0" x1="0" y1="65.39999847412109" x2="190" y2="65.39999847412109"/></g><g transform="translate(95, 10)"><text dy="1em" alignment-baseline="middle" dominant-baseline="middle" text-anchor="middle"><tspan x="0" dy="1em">нули   вместо</tspan><tspan x="0" dy="1.1em">кода</tspan></text></g></g></g><g class="eventWrapper" transform="translate(600, 443.1999984741211)"><g class="timeline-node section-0"><g><path id="node-undefined" class="node-bkg node-undefined" d="M0 60.39999847412109 v-55.39999847412109 q0,-5 5,-5 h180 q5,0 5,5 v60.39999847412109 H0 Z"/><line class="node-line-0" x1="0" y1="65.39999847412109" x2="190" y2="65.39999847412109"/></g><g transform="translate(95, 10)"><text dy="1em" alignment-baseline="middle" dominant-baseline="middle" text-anchor="middle"><tspan x="0" dy="1em">не   железо,   не</tspan><tspan x="0" dy="1.1em">Postgres</tspan></text></g></g></g><g class="taskWrapper" transform="translate(800, 167.8)"><g class="timeline-node section-0"><g><path id="node-undefined" class="node-bkg node-undefined" d="M0 62.8 v-57.8 q0,-5 5,-5 h180 q5,0 5,5 v62.8 H0 Z"/><line class="node-line-0" x1="0" y1="67.8" x2="190" y2="67.8"/></g><g transform="translate(95, 10)"><text dy="1em" alignment-baseline="middle" dominant-baseline="middle" text-anchor="middle"><tspan x="0" dy="1em">Воскрешение</tspan></text></g></g></g><g class="lineWrapper"><line x1="895" y1="235.60000000000002" x2="895" y2="576.3999969482422" stroke-width="2" stroke="black" marker-end="url(#arrowhead)" stroke-dasharray="5,5"/></g><g class="eventWrapper" transform="translate(800, 367.8)"><g class="timeline-node section-0"><g><path id="node-undefined" class="node-bkg node-undefined" d="M0 60.39999847412109 v-55.39999847412109 q0,-5 5,-5 h180 q5,0 5,5 v60.39999847412109 H0 Z"/><line class="node-line-0" x1="0" y1="65.39999847412109" x2="190" y2="65.39999847412109"/></g><g transform="translate(95, 10)"><text dy="1em" alignment-baseline="middle" dominant-baseline="middle" text-anchor="middle"><tspan x="0" dy="1em">падение   без</tspan><tspan x="0" dy="1.1em">падения</tspan></text></g></g></g><g transform="translate(1000, 50)"><g class="timeline-node section-1"><g><path id="node-undefined" class="node-bkg node-undefined" d="M0 62.8 v-57.8 q0,-5 5,-5 h580 q5,0 5,5 v62.8 H0 Z"/><line class="node-line-1" x1="0" y1="67.8" x2="590" y2="67.8"/></g><g transform="translate(295, 10)"><text dy="1em" alignment-baseline="middle" dominant-baseline="middle" text-anchor="middle"><tspan x="0" dy="1em">Условия</tspan></text></g></g></g><g class="taskWrapper" transform="translate(1000, 167.8)"><g class="timeline-node section-1"><g><path id="node-undefined" class="node-bkg node-undefined" d="M0 62.8 v-57.8 q0,-5 5,-5 h180 q5,0 5,5 v62.8 H0 Z"/><line class="node-line-1" x1="0" y1="67.8" x2="190" y2="67.8"/></g><g transform="translate(95, 10)"><text dy="1em" alignment-baseline="middle" dominant-baseline="middle" text-anchor="middle"><tspan x="0" dy="1em">XFS</tspan></text></g></g></g><g class="lineWrapper"><line x1="1095" y1="235.60000000000002" x2="1095" y2="576.3999969482422" stroke-width="2" stroke="black" marker-end="url(#arrowhead)" stroke-dasharray="5,5"/></g><g class="eventWrapper" transform="translate(1000, 367.8)"><g class="timeline-node section-1"><g><path id="node-undefined" class="node-bkg node-undefined" d="M0 60.39999847412109 v-55.39999847412109 q0,-5 5,-5 h180 q5,0 5,5 v60.39999847412109 H0 Z"/><line class="node-line-1" x1="0" y1="65.39999847412109" x2="190" y2="65.39999847412109"/></g><g transform="translate(95, 10)"><text dy="1em" alignment-baseline="middle" dominant-baseline="middle" text-anchor="middle"><tspan x="0" dy="1em">файловая</tspan><tspan x="0" dy="1.1em">система</tspan></text></g></g></g><g class="taskWrapper" transform="translate(1200, 167.8)"><g class="timeline-node section-1"><g><path id="node-undefined" class="node-bkg node-undefined" d="M0 62.8 v-57.8 q0,-5 5,-5 h180 q5,0 5,5 v62.8 H0 Z"/><line class="node-line-1" x1="0" y1="67.8" x2="190" y2="67.8"/></g><g transform="translate(95, 10)"><text dy="1em" alignment-baseline="middle" dominant-baseline="middle" text-anchor="middle"><tspan x="0" dy="1em">init_on_free</tspan></text></g></g></g><g class="lineWrapper"><line x1="1295" y1="235.60000000000002" x2="1295" y2="576.3999969482422" stroke-width="2" stroke="black" marker-end="url(#arrowhead)" stroke-dasharray="5,5"/></g><g class="eventWrapper" transform="translate(1200, 367.8)"><g class="timeline-node section-1"><g><path id="node-undefined" class="node-bkg node-undefined" d="M0 45 v-40 q0,-5 5,-5 h180 q5,0 5,5 v45 H0 Z"/><line class="node-line-1" x1="0" y1="50" x2="190" y2="50"/></g><g transform="translate(95, 10)"><text dy="1em" alignment-baseline="middle" dominant-baseline="middle" text-anchor="middle"><tspan x="0" dy="1em">ФСТЭК</tspan></text></g></g></g><g class="taskWrapper" transform="translate(1400, 167.8)"><g class="timeline-node section-1"><g><path id="node-undefined" class="node-bkg node-undefined" d="M0 62.8 v-57.8 q0,-5 5,-5 h180 q5,0 5,5 v62.8 H0 Z"/><line class="node-line-1" x1="0" y1="67.8" x2="190" y2="67.8"/></g><g transform="translate(95, 10)"><text dy="1em" alignment-baseline="middle" dominant-baseline="middle" text-anchor="middle"><tspan x="0" dy="1em">Memory   pressure</tspan></text></g></g></g><g class="lineWrapper"><line x1="1495" y1="235.60000000000002" x2="1495" y2="576.3999969482422" stroke-width="2" stroke="black" marker-end="url(#arrowhead)" stroke-dasharray="5,5"/></g><g class="eventWrapper" transform="translate(1400, 367.8)"><g class="timeline-node section-1"><g><path id="node-undefined" class="node-bkg node-undefined" d="M0 45 v-40 q0,-5 5,-5 h180 q5,0 5,5 v45 H0 Z"/><line class="node-line-1" x1="0" y1="50" x2="190" y2="50"/></g><g transform="translate(95, 10)"><text dy="1em" alignment-baseline="middle" dominant-baseline="middle" text-anchor="middle"><tspan x="0" dy="1em">mmap</tspan></text></g></g></g><g transform="translate(1600, 50)"><g class="timeline-node section-2"><g><path id="node-undefined" class="node-bkg node-undefined" d="M0 62.8 v-57.8 q0,-5 5,-5 h380 q5,0 5,5 v62.8 H0 Z"/><line class="node-line-2" x1="0" y1="67.8" x2="390" y2="67.8"/></g><g transform="translate(195, 10)"><text dy="1em" alignment-baseline="middle" dominant-baseline="middle" text-anchor="middle"><tspan x="0" dy="1em">Доказательство</tspan></text></g></g></g><g class="taskWrapper" transform="translate(1600, 167.8)"><g class="timeline-node section-2"><g><path id="node-undefined" class="node-bkg node-undefined" d="M0 62.8 v-57.8 q0,-5 5,-5 h180 q5,0 5,5 v62.8 H0 Z"/><line class="node-line-2" x1="0" y1="67.8" x2="190" y2="67.8"/></g><g transform="translate(95, 10)"><text dy="1em" alignment-baseline="middle" dominant-baseline="middle" text-anchor="middle"><tspan x="0" dy="1em">30   секунд</tspan></text></g></g></g><g class="lineWrapper"><line x1="1695" y1="235.60000000000002" x2="1695" y2="576.3999969482422" stroke-width="2" stroke="black" marker-end="url(#arrowhead)" stroke-dasharray="5,5"/></g><g class="eventWrapper" transform="translate(1600, 367.8)"><g class="timeline-node section-2"><g><path id="node-undefined" class="node-bkg node-undefined" d="M0 45 v-40 q0,-5 5,-5 h180 q5,0 5,5 v45 H0 Z"/><line class="node-line-2" x1="0" y1="50" x2="190" y2="50"/></g><g transform="translate(95, 10)"><text dy="1em" alignment-baseline="middle" dominant-baseline="middle" text-anchor="middle"><tspan x="0" dy="1em">воспроизведение</tspan></text></g></g></g><g class="taskWrapper" transform="translate(1800, 167.8)"><g class="timeline-node section-2"><g><path id="node-undefined" class="node-bkg node-undefined" d="M0 62.8 v-57.8 q0,-5 5,-5 h180 q5,0 5,5 v62.8 H0 Z"/><line class="node-line-2" x1="0" y1="67.8" x2="190" y2="67.8"/></g><g transform="translate(95, 10)"><text dy="1em" alignment-baseline="middle" dominant-baseline="middle" text-anchor="middle"><tspan x="0" dy="1em">Два   теста</tspan></text></g></g></g><g class="lineWrapper"><line x1="1895" y1="235.60000000000002" x2="1895" y2="576.3999969482422" stroke-width="2" stroke="black" marker-end="url(#arrowhead)" stroke-dasharray="5,5"/></g><g class="eventWrapper" transform="translate(1800, 367.8)"><g class="timeline-node section-2"><g><path id="node-undefined" class="node-bkg node-undefined" d="M0 60.39999847412109 v-55.39999847412109 q0,-5 5,-5 h180 q5,0 5,5 v60.39999847412109 H0 Z"/><line class="node-line-2" x1="0" y1="65.39999847412109" x2="190" y2="65.39999847412109"/></g><g transform="translate(95, 10)"><text dy="1em" alignment-baseline="middle" dominant-baseline="middle" text-anchor="middle"><tspan x="0" dy="1em">данные   и</tspan><tspan x="0" dy="1.1em">сегфолт</tspan></text></g></g></g><text x="745" font-size="4ex" font-weight="bold" y="20">Расследование</text><g class="lineWrapper"><line x1="150" y1="285.6" x2="2240" y2="285.6" stroke-width="4" stroke="black" marker-end="url(#arrowhead)"/></g></svg>