<svg id="my-svg" width="100%" xmlns="http://www.w3.org/2000/svg" xmlns:xlink="http://www.w3.org/1999/xlink" style="max-width: 1390px; background-color: transparent;" viewBox="100 -71 1390 685" role="graphics-document document" aria-roledescription="timeline"><style>#my-svg{font-family:verdana;font-size:20px;fill:#ddd;}@keyframes edge-animation-frame{from{stroke-dashoffset:0;}}@keyframes dash{to{stroke-dashoffset:0;}}#my-svg .edge-animation-slow{stroke-dasharray:9,5!important;stroke-dashoffset:900;animation:dash 50s linear infinite;stroke-linecap:round;}#my-svg .edge-animation-fast{stroke-dasharray:9,5!important;stroke-dashoffset:900;animation:dash 20s linear infinite;stroke-linecap:round;}#my-svg .error-icon{fill:#111111;}#my-svg .error-text{fill:#fff;stroke:#fff;}#my-svg .edge-thickness-normal{stroke-width:1px;}#my-svg .edge-thickness-thick{stroke-width:3.5px;}#my-svg .edge-pattern-solid{stroke-dasharray:0;}#my-svg .edge-thickness-invisible{stroke-width:0;fill:none;}#my-svg .edge-pattern-dashed{stroke-dasharray:3;}#my-svg .edge-pattern-dotted{stroke-dasharray:2;}#my-svg .marker{fill:#ff9e1f;stroke:#ff9e1f;}#my-svg .marker.cross{stroke:#ff9e1f;}#my-svg svg{font-family:verdana;font-size:20px;}#my-svg p{margin:0;}#my-svg .edge{stroke-width:3;}#my-svg .section--1 rect,#my-svg .section--1 path,#my-svg .section--1 circle,#my-svg .section--1 path{fill:#222;}#my-svg .section--1 text{fill:#aaa;}#my-svg .node-icon--1{font-size:40px;color:#aaa;}#my-svg .section-edge--1{stroke:#222;}#my-svg .edge-depth--1{stroke-width:17;}#my-svg .section--1 line{stroke:#ffffff;stroke-width:3;}#my-svg .lineWrapper line{stroke:#aaa;}#my-svg .disabled,#my-svg .disabled circle,#my-svg .disabled text{fill:lightgray;}#my-svg .disabled text{fill:#efefef;}#my-svg .section-0 rect,#my-svg .section-0 path,#my-svg .section-0 circle,#my-svg .section-0 path{fill:#222;}#my-svg .section-0 text{fill:#aaa;}#my-svg .node-icon-0{font-size:40px;color:#aaa;}#my-svg .section-edge-0{stroke:#222;}#my-svg .edge-depth-0{stroke-width:14;}#my-svg .section-0 line{stroke:#ffffff;stroke-width:3;}#my-svg .lineWrapper line{stroke:#aaa;}#my-svg .disabled,#my-svg .disabled circle,#my-svg .disabled text{fill:lightgray;}#my-svg .disabled text{fill:#efefef;}#my-svg .section-1 rect,#my-svg .section-1 path,#my-svg .section-1 circle,#my-svg .section-1 path{fill:#222;}#my-svg .section-1 text{fill:#aaa;}#my-svg .node-icon-1{font-size:40px;color:#aaa;}#my-svg .section-edge-1{stroke:#222;}#my-svg .edge-depth-1{stroke-width:11;}#my-svg .section-1 line{stroke:#ffffff;stroke-width:3;}#my-svg .lineWrapper line{stroke:#aaa;}#my-svg .disabled,#my-svg .disabled circle,#my-svg .disabled text{fill:lightgray;}#my-svg .disabled text{fill:#efefef;}#my-svg .section-2 rect,#my-svg .section-2 path,#my-svg .section-2 circle,#my-svg .section-2 path{fill:#ff9e1f;}#my-svg .section-2 text{fill:#000;}#my-svg .node-icon-2{font-size:40px;color:#000;}#my-svg .section-edge-2{stroke:#ff9e1f;}#my-svg .edge-depth-2{stroke-width:8;}#my-svg .section-2 line{stroke:#ffffff;stroke-width:3;}#my-svg .lineWrapper line{stroke:#000;}#my-svg .disabled,#my-svg .disabled circle,#my-svg .disabled text{fill:lightgray;}#my-svg .disabled text{fill:#efefef;}#my-svg .section-3 rect,#my-svg .section-3 path,#my-svg .section-3 circle,#my-svg .section-3 path{fill:transparent;}#my-svg .section-3 text{fill:transparent;}#my-svg .node-icon-3{font-size:40px;color:transparent;}#my-svg .section-edge-3{stroke:transparent;}#my-svg .edge-depth-3{stroke-width:5;}#my-svg .section-3 line{stroke:rgba(255, 255, 255, 0);stroke-width:3;}#my-svg .lineWrapper line{stroke:transparent;}#my-svg .disabled,#my-svg .disabled circle,#my-svg .disabled text{fill:lightgray;}#my-svg .disabled text{fill:#efefef;}#my-svg .section-4 rect,#my-svg .section-4 path,#my-svg .section-4 circle,#my-svg .section-4 path{fill:transparent;}#my-svg .section-4 text{fill:transparent;}#my-svg .node-icon-4{font-size:40px;color:transparent;}#my-svg .section-edge-4{stroke:transparent;}#my-svg .edge-depth-4{stroke-width:2;}#my-svg .section-4 line{stroke:rgba(255, 255, 255, 0);stroke-width:3;}#my-svg .lineWrapper line{stroke:transparent;}#my-svg .disabled,#my-svg .disabled circle,#my-svg .disabled text{fill:lightgray;}#my-svg .disabled text{fill:#efefef;}#my-svg .section-5 rect,#my-svg .section-5 path,#my-svg .section-5 circle,#my-svg .section-5 path{fill:transparent;}#my-svg .section-5 text{fill:transparent;}#my-svg .node-icon-5{font-size:40px;color:transparent;}#my-svg .section-edge-5{stroke:transparent;}#my-svg .edge-depth-5{stroke-width:-1;}#my-svg .section-5 line{stroke:rgba(255, 255, 255, 0);stroke-width:3;}#my-svg .lineWrapper line{stroke:transparent;}#my-svg .disabled,#my-svg .disabled circle,#my-svg .disabled text{fill:lightgray;}#my-svg .disabled text{fill:#efefef;}#my-svg .section-6 rect,#my-svg .section-6 path,#my-svg .section-6 circle,#my-svg .section-6 path{fill:transparent;}#my-svg .section-6 text{fill:transparent;}#my-svg .node-icon-6{font-size:40px;color:transparent;}#my-svg .section-edge-6{stroke:transparent;}#my-svg .edge-depth-6{stroke-width:-4;}#my-svg .section-6 line{stroke:rgba(255, 255, 255, 0);stroke-width:3;}#my-svg .lineWrapper line{stroke:transparent;}#my-svg .disabled,#my-svg .disabled circle,#my-svg .disabled text{fill:lightgray;}#my-svg .disabled text{fill:#efefef;}#my-svg .section-7 rect,#my-svg .section-7 path,#my-svg .section-7 circle,#my-svg .section-7 path{fill:transparent;}#my-svg .section-7 text{fill:transparent;}#my-svg .node-icon-7{font-size:40px;color:transparent;}#my-svg .section-edge-7{stroke:transparent;}#my-svg .edge-depth-7{stroke-width:-7;}#my-svg .section-7 line{stroke:rgba(255, 255, 255, 0);stroke-width:3;}#my-svg .lineWrapper line{stroke:transparent;}#my-svg .disabled,#my-svg .disabled circle,#my-svg .disabled text{fill:lightgray;}#my-svg .disabled text{fill:#efefef;}#my-svg .section-8 rect,#my-svg .section-8 path,#my-svg .section-8 circle,#my-svg .section-8 path{fill:transparent;}#my-svg .section-8 text{fill:transparent;}#my-svg .node-icon-8{font-size:40px;color:transparent;}#my-svg .section-edge-8{stroke:transparent;}#my-svg .edge-depth-8{stroke-width:-10;}#my-svg .section-8 line{stroke:rgba(255, 255, 255, 0);stroke-width:3;}#my-svg .lineWrapper line{stroke:transparent;}#my-svg .disabled,#my-svg .disabled circle,#my-svg .disabled text{fill:lightgray;}#my-svg .disabled text{fill:#efefef;}#my-svg .section-9 rect,#my-svg .section-9 path,#my-svg .section-9 circle,#my-svg .section-9 path{fill:transparent;}#my-svg .section-9 text{fill:transparent;}#my-svg .node-icon-9{font-size:40px;color:transparent;}#my-svg .section-edge-9{stroke:transparent;}#my-svg .edge-depth-9{stroke-width:-13;}#my-svg .section-9 line{stroke:rgba(255, 255, 255, 0);stroke-width:3;}#my-svg .lineWrapper line{stroke:transparent;}#my-svg .disabled,#my-svg .disabled circle,#my-svg .disabled text{fill:lightgray;}#my-svg .disabled text{fill:#efefef;}#my-svg .section-10 rect,#my-svg .section-10 path,#my-svg .section-10 circle,#my-svg .section-10 path{fill:transparent;}#my-svg .section-10 text{fill:#ff9e1f;}#my-svg .node-icon-10{font-size:40px;color:#ff9e1f;}#my-svg .section-edge-10{stroke:transparent;}#my-svg .edge-depth-10{stroke-width:-16;}#my-svg .section-10 line{stroke:rgba(255, 255, 255, 0);stroke-width:3;}#my-svg .lineWrapper line{stroke:#ff9e1f;}#my-svg .disabled,#my-svg .disabled circle,#my-svg .disabled text{fill:lightgray;}#my-svg .disabled text{fill:#efefef;}#my-svg .section-root rect,#my-svg .section-root path,#my-svg .section-root circle{fill:hsl(34.0178571429, 100%, 81.0784313725%);}#my-svg .section-root text{fill:black;}#my-svg .icon-container{height:100%;display:flex;justify-content:center;align-items:center;}#my-svg .edge{fill:none;}#my-svg .eventWrapper{filter:brightness(120%);}#my-svg :root{--mermaid-font-family:"trebuchet ms",verdana,arial,sans-serif;}</style><g/><g/><defs><marker id="arrowhead" refX="5" refY="2" markerWidth="6" markerHeight="4" orient="auto"><path d="M 0,0 V 4 L6,2 Z"/></marker></defs><g class="taskWrapper" transform="translate(200, 50)"><g class="timeline-node section--1"><g><path id="node-undefined" class="node-bkg node-undefined" d="M0 67.8 v-62.8 q0,-5 5,-5 h180 q5,0 5,5 v67.8 H0 Z"/><line class="node-line--1" x1="0" y1="72.8" x2="190" y2="72.8"/></g><g transform="translate(95, 10)"><text dy="1em" alignment-baseline="middle" dominant-baseline="middle" text-anchor="middle"><tspan x="0" dy="1em">30   декабря</tspan></text></g></g></g><g class="lineWrapper"><line x1="295" y1="122.8" x2="295" y2="564" stroke-width="2" stroke="black" marker-end="url(#arrowhead)" stroke-dasharray="5,5"/></g><g class="eventWrapper" transform="translate(200, 250)"><g class="timeline-node section--1"><g><path id="node-undefined" class="node-bkg node-undefined" d="M0 47.8 v-42.8 q0,-5 5,-5 h180 q5,0 5,5 v47.8 H0 Z"/><line class="node-line--1" x1="0" y1="52.8" x2="190" y2="52.8"/></g><g transform="translate(95, 10)"><text dy="1em" alignment-baseline="middle" dominant-baseline="middle" text-anchor="middle"><tspan x="0" dy="1em">segfault</tspan></text></g></g></g><g class="eventWrapper" transform="translate(200, 312.8)"><g class="timeline-node section--1"><g><path id="node-undefined" class="node-bkg node-undefined" d="M0 47.8 v-42.8 q0,-5 5,-5 h180 q5,0 5,5 v47.8 H0 Z"/><line class="node-line--1" x1="0" y1="52.8" x2="190" y2="52.8"/></g><g transform="translate(95, 10)"><text dy="1em" alignment-baseline="middle" dominant-baseline="middle" text-anchor="middle"><tspan x="0" dy="1em">гипотеза</tspan></text></g></g></g><g class="eventWrapper" transform="translate(200, 375.6)"><g class="timeline-node section--1"><g><path id="node-undefined" class="node-bkg node-undefined" d="M0 47.8 v-42.8 q0,-5 5,-5 h180 q5,0 5,5 v47.8 H0 Z"/><line class="node-line--1" x1="0" y1="52.8" x2="190" y2="52.8"/></g><g transform="translate(95, 10)"><text dy="1em" alignment-baseline="middle" dominant-baseline="middle" text-anchor="middle"><tspan x="0" dy="1em">пинг-понг</tspan></text></g></g></g><g class="eventWrapper" transform="translate(200, 438.40000000000003)"><g class="timeline-node section--1"><g><path id="node-undefined" class="node-bkg node-undefined" d="M0 47.8 v-42.8 q0,-5 5,-5 h180 q5,0 5,5 v47.8 H0 Z"/><line class="node-line--1" x1="0" y1="52.8" x2="190" y2="52.8"/></g><g transform="translate(95, 10)"><text dy="1em" alignment-baseline="middle" dominant-baseline="middle" text-anchor="middle"><tspan x="0" dy="1em">копаем</tspan></text></g></g></g><g class="taskWrapper" transform="translate(400, 50)"><g class="timeline-node section-0"><g><path id="node-undefined" class="node-bkg node-undefined" d="M0 67.8 v-62.8 q0,-5 5,-5 h180 q5,0 5,5 v67.8 H0 Z"/><line class="node-line-0" x1="0" y1="72.8" x2="190" y2="72.8"/></g><g transform="translate(95, 10)"><text dy="1em" alignment-baseline="middle" dominant-baseline="middle" text-anchor="middle"><tspan x="0" dy="1em">Зацепки</tspan></text></g></g></g><g class="lineWrapper"><line x1="495" y1="122.8" x2="495" y2="564" stroke-width="2" stroke="black" marker-end="url(#arrowhead)" stroke-dasharray="5,5"/></g><g class="eventWrapper" transform="translate(400, 250)"><g class="timeline-node section-0"><g><path id="node-undefined" class="node-bkg node-undefined" d="M0 47.8 v-42.8 q0,-5 5,-5 h180 q5,0 5,5 v47.8 H0 Z"/><line class="node-line-0" x1="0" y1="52.8" x2="190" y2="52.8"/></g><g transform="translate(95, 10)"><text dy="1em" alignment-baseline="middle" dominant-baseline="middle" text-anchor="middle"><tspan x="0" dy="1em">нули   в   dmesg</tspan></text></g></g></g><g class="eventWrapper" transform="translate(400, 312.8)"><g class="timeline-node section-0"><g><path id="node-undefined" class="node-bkg node-undefined" d="M0 47.8 v-42.8 q0,-5 5,-5 h180 q5,0 5,5 v47.8 H0 Z"/><line class="node-line-0" x1="0" y1="52.8" x2="190" y2="52.8"/></g><g transform="translate(95, 10)"><text dy="1em" alignment-baseline="middle" dominant-baseline="middle" text-anchor="middle"><tspan x="0" dy="1em">не   Postgres</tspan></text></g></g></g><g class="eventWrapper" transform="translate(400, 375.6)"><g class="timeline-node section-0"><g><path id="node-undefined" class="node-bkg node-undefined" d="M0 47.8 v-42.8 q0,-5 5,-5 h180 q5,0 5,5 v47.8 H0 Z"/><line class="node-line-0" x1="0" y1="52.8" x2="190" y2="52.8"/></g><g transform="translate(95, 10)"><text dy="1em" alignment-baseline="middle" dominant-baseline="middle" text-anchor="middle"><tspan x="0" dy="1em">нагрузка</tspan></text></g></g></g><g class="eventWrapper" transform="translate(400, 438.40000000000003)"><g class="timeline-node section-0"><g><path id="node-undefined" class="node-bkg node-undefined" d="M0 47.8 v-42.8 q0,-5 5,-5 h180 q5,0 5,5 v47.8 H0 Z"/><line class="node-line-0" x1="0" y1="52.8" x2="190" y2="52.8"/></g><g transform="translate(95, 10)"><text dy="1em" alignment-baseline="middle" dominant-baseline="middle" text-anchor="middle"><tspan x="0" dy="1em">воскрешение</tspan></text></g></g></g><g class="taskWrapper" transform="translate(600, 50)"><g class="timeline-node section-1"><g><path id="node-undefined" class="node-bkg node-undefined" d="M0 67.8 v-62.8 q0,-5 5,-5 h180 q5,0 5,5 v67.8 H0 Z"/><line class="node-line-1" x1="0" y1="72.8" x2="190" y2="72.8"/></g><g transform="translate(95, 10)"><text dy="1em" alignment-baseline="middle" dominant-baseline="middle" text-anchor="middle"><tspan x="0" dy="1em">Три   условия</tspan></text></g></g></g><g class="lineWrapper"><line x1="695" y1="122.8" x2="695" y2="564" stroke-width="2" stroke="black" marker-end="url(#arrowhead)" stroke-dasharray="5,5"/></g><g class="eventWrapper" transform="translate(600, 250)"><g class="timeline-node section-1"><g><path id="node-undefined" class="node-bkg node-undefined" d="M0 47.8 v-42.8 q0,-5 5,-5 h180 q5,0 5,5 v47.8 H0 Z"/><line class="node-line-1" x1="0" y1="52.8" x2="190" y2="52.8"/></g><g transform="translate(95, 10)"><text dy="1em" alignment-baseline="middle" dominant-baseline="middle" text-anchor="middle"><tspan x="0" dy="1em">XFS</tspan></text></g></g></g><g class="eventWrapper" transform="translate(600, 312.8)"><g class="timeline-node section-1"><g><path id="node-undefined" class="node-bkg node-undefined" d="M0 47.8 v-42.8 q0,-5 5,-5 h180 q5,0 5,5 v47.8 H0 Z"/><line class="node-line-1" x1="0" y1="52.8" x2="190" y2="52.8"/></g><g transform="translate(95, 10)"><text dy="1em" alignment-baseline="middle" dominant-baseline="middle" text-anchor="middle"><tspan x="0" dy="1em">init_on_free</tspan></text></g></g></g><g class="eventWrapper" transform="translate(600, 375.6)"><g class="timeline-node section-1"><g><path id="node-undefined" class="node-bkg node-undefined" d="M0 47.8 v-42.8 q0,-5 5,-5 h180 q5,0 5,5 v47.8 H0 Z"/><line class="node-line-1" x1="0" y1="52.8" x2="190" y2="52.8"/></g><g transform="translate(95, 10)"><text dy="1em" alignment-baseline="middle" dominant-baseline="middle" text-anchor="middle"><tspan x="0" dy="1em">pressure</tspan></text></g></g></g><g class="eventWrapper" transform="translate(600, 438.40000000000003)"><g class="timeline-node section-1"><g><path id="node-undefined" class="node-bkg node-undefined" d="M0 47.8 v-42.8 q0,-5 5,-5 h180 q5,0 5,5 v47.8 H0 Z"/><line class="node-line-1" x1="0" y1="52.8" x2="190" y2="52.8"/></g><g transform="translate(95, 10)"><text dy="1em" alignment-baseline="middle" dominant-baseline="middle" text-anchor="middle"><tspan x="0" dy="1em">лечилка</tspan></text></g></g></g><g class="taskWrapper" transform="translate(800, 50)"><g class="timeline-node section-2"><g><path id="node-undefined" class="node-bkg node-undefined" d="M0 67.8 v-62.8 q0,-5 5,-5 h180 q5,0 5,5 v67.8 H0 Z"/><line class="node-line-2" x1="0" y1="72.8" x2="190" y2="72.8"/></g><g transform="translate(95, 10)"><text dy="1em" alignment-baseline="middle" dominant-baseline="middle" text-anchor="middle"><tspan x="0" dy="1em"/><tspan x="0" dy="1.1em">Доказательство</tspan></text></g></g></g><g class="lineWrapper"><line x1="895" y1="122.8" x2="895" y2="564" stroke-width="2" stroke="black" marker-end="url(#arrowhead)" stroke-dasharray="5,5"/></g><g class="eventWrapper" transform="translate(800, 250)"><g class="timeline-node section-2"><g><path id="node-undefined" class="node-bkg node-undefined" d="M0 47.8 v-42.8 q0,-5 5,-5 h180 q5,0 5,5 v47.8 H0 Z"/><line class="node-line-2" x1="0" y1="52.8" x2="190" y2="52.8"/></g><g transform="translate(95, 10)"><text dy="1em" alignment-baseline="middle" dominant-baseline="middle" text-anchor="middle"><tspan x="0" dy="1em">30   секунд</tspan></text></g></g></g><g class="eventWrapper" transform="translate(800, 312.8)"><g class="timeline-node section-2"><g><path id="node-undefined" class="node-bkg node-undefined" d="M0 47.8 v-42.8 q0,-5 5,-5 h180 q5,0 5,5 v47.8 H0 Z"/><line class="node-line-2" x1="0" y1="52.8" x2="190" y2="52.8"/></g><g transform="translate(95, 10)"><text dy="1em" alignment-baseline="middle" dominant-baseline="middle" text-anchor="middle"><tspan x="0" dy="1em">два   теста</tspan></text></g></g></g><g class="eventWrapper" transform="translate(800, 375.6)"><g class="timeline-node section-2"><g><path id="node-undefined" class="node-bkg node-undefined" d="M0 47.8 v-42.8 q0,-5 5,-5 h180 q5,0 5,5 v47.8 H0 Z"/><line class="node-line-2" x1="0" y1="52.8" x2="190" y2="52.8"/></g><g transform="translate(95, 10)"><text dy="1em" alignment-baseline="middle" dominant-baseline="middle" text-anchor="middle"><tspan x="0" dy="1em">git   bisect</tspan></text></g></g></g><g class="eventWrapper" transform="translate(800, 438.40000000000003)"><g class="timeline-node section-2"><g><path id="node-undefined" class="node-bkg node-undefined" d="M0 47.8 v-42.8 q0,-5 5,-5 h180 q5,0 5,5 v47.8 H0 Z"/><line class="node-line-2" x1="0" y1="52.8" x2="190" y2="52.8"/></g><g transform="translate(95, 10)"><text dy="1em" alignment-baseline="middle" dominant-baseline="middle" text-anchor="middle"><tspan x="0" dy="1em">коммит</tspan></text></g></g></g><g class="taskWrapper" transform="translate(1000, 50)"><g class="timeline-node section-3"><g><path id="node-undefined" class="node-bkg node-undefined" d="M0 67.8 v-62.8 q0,-5 5,-5 h180 q5,0 5,5 v67.8 H0 Z"/><line class="node-line-3" x1="0" y1="72.8" x2="190" y2="72.8"/></g><g transform="translate(95, 10)"><text dy="1em" alignment-baseline="middle" dominant-baseline="middle" text-anchor="middle"><tspan x="0" dy="1em">Root   cause</tspan></text></g></g></g><g class="lineWrapper"><line x1="1095" y1="122.8" x2="1095" y2="564" stroke-width="2" stroke="black" marker-end="url(#arrowhead)" stroke-dasharray="5,5"/></g><g class="eventWrapper" transform="translate(1000, 250)"><g class="timeline-node section-3"><g><path id="node-undefined" class="node-bkg node-undefined" d="M0 47.8 v-42.8 q0,-5 5,-5 h180 q5,0 5,5 v47.8 H0 Z"/><line class="node-line-3" x1="0" y1="52.8" x2="190" y2="52.8"/></g><g transform="translate(95, 10)"><text dy="1em" alignment-baseline="middle" dominant-baseline="middle" text-anchor="middle"><tspan x="0" dy="1em">race   condition</tspan></text></g></g></g><g class="eventWrapper" transform="translate(1000, 312.8)"><g class="timeline-node section-3"><g><path id="node-undefined" class="node-bkg node-undefined" d="M0 47.8 v-42.8 q0,-5 5,-5 h180 q5,0 5,5 v47.8 H0 Z"/><line class="node-line-3" x1="0" y1="52.8" x2="190" y2="52.8"/></g><g transform="translate(95, 10)"><text dy="1em" alignment-baseline="middle" dominant-baseline="middle" text-anchor="middle"><tspan x="0" dy="1em">фикс   6.9</tspan></text></g></g></g><g class="eventWrapper" transform="translate(1000, 375.6)"><g class="timeline-node section-3"><g><path id="node-undefined" class="node-bkg node-undefined" d="M0 47.8 v-42.8 q0,-5 5,-5 h180 q5,0 5,5 v47.8 H0 Z"/><line class="node-line-3" x1="0" y1="52.8" x2="190" y2="52.8"/></g><g transform="translate(95, 10)"><text dy="1em" alignment-baseline="middle" dominant-baseline="middle" text-anchor="middle"><tspan x="0" dy="1em">XZ   Utils</tspan></text></g></g></g><g class="eventWrapper" transform="translate(1000, 438.40000000000003)"><g class="timeline-node section-3"><g><path id="node-undefined" class="node-bkg node-undefined" d="M0 47.8 v-42.8 q0,-5 5,-5 h180 q5,0 5,5 v47.8 H0 Z"/><line class="node-line-3" x1="0" y1="52.8" x2="190" y2="52.8"/></g><g transform="translate(95, 10)"><text dy="1em" alignment-baseline="middle" dominant-baseline="middle" text-anchor="middle"><tspan x="0" dy="1em">бэкпорта   нет</tspan></text></g></g></g><text x="345" font-size="4ex" font-weight="bold" y="20">Расследование</text><g class="lineWrapper"><line x1="150" y1="172.8" x2="1440" y2="172.8" stroke-width="4" stroke="black" marker-end="url(#arrowhead)"/></g></svg>