<svg id="my-svg" width="100%" xmlns="http://www.w3.org/2000/svg" xmlns:xlink="http://www.w3.org/1999/xlink" viewBox="0 0 800 450" style="max-width: 800px; background-color: transparent;" role="graphics-document document" aria-roledescription="venn"><style>#my-svg{font-family:verdana;font-size:16px;fill:#fff;}@keyframes edge-animation-frame{from{stroke-dashoffset:0;}}@keyframes dash{to{stroke-dashoffset:0;}}#my-svg .edge-animation-slow{stroke-dasharray:9,5!important;stroke-dashoffset:900;animation:dash 50s linear infinite;stroke-linecap:round;}#my-svg .edge-animation-fast{stroke-dasharray:9,5!important;stroke-dashoffset:900;animation:dash 20s linear infinite;stroke-linecap:round;}#my-svg .error-icon{fill:hsl(214.0178571429, 100%, 61.0784313725%);}#my-svg .error-text{fill:rgb(198.5000000003, 112.5424107146, 0);stroke:rgb(198.5000000003, 112.5424107146, 0);}#my-svg .edge-thickness-normal{stroke-width:1px;}#my-svg .edge-thickness-thick{stroke-width:3.5px;}#my-svg .edge-pattern-solid{stroke-dasharray:0;}#my-svg .edge-thickness-invisible{stroke-width:0;fill:none;}#my-svg .edge-pattern-dashed{stroke-dasharray:3;}#my-svg .edge-pattern-dotted{stroke-dasharray:2;}#my-svg .marker{fill:#ffffff;stroke:#ffffff;}#my-svg .marker.cross{stroke:#ffffff;}#my-svg svg{font-family:verdana;font-size:16px;}#my-svg p{margin:0;}#my-svg .venn-title{font-size:32px;fill:rgb(198.5000000003, 112.5424107146, 0);font-family:verdana;}#my-svg .venn-circle text{font-size:48px;font-family:verdana;}#my-svg .venn-intersection text{font-size:48px;fill:#fff;font-family:verdana;}#my-svg .venn-text-node{font-family:verdana;color:#fff;}#my-svg .node .neo-node{stroke:hsl(34.0178571429, 60%, 66.0784313725%);}#my-svg [data-look="neo"].node rect,#my-svg [data-look="neo"].cluster rect,#my-svg [data-look="neo"].node polygon{stroke:url(#my-svg-gradient);filter:drop-shadow( 1px 2px 2px rgba(185,185,185,1));}#my-svg [data-look="neo"].node path{stroke:url(#my-svg-gradient);stroke-width:1px;}#my-svg [data-look="neo"].node .outer-path{filter:drop-shadow( 1px 2px 2px rgba(185,185,185,1));}#my-svg [data-look="neo"].node .neo-line path{stroke:hsl(34.0178571429, 60%, 66.0784313725%);filter:none;}#my-svg [data-look="neo"].node circle{stroke:url(#my-svg-gradient);filter:drop-shadow( 1px 2px 2px rgba(185,185,185,1));}#my-svg [data-look="neo"].node circle .state-start{fill:#000000;}#my-svg [data-look="neo"].icon-shape .icon{fill:url(#my-svg-gradient);filter:drop-shadow( 1px 2px 2px rgba(185,185,185,1));}#my-svg [data-look="neo"].icon-shape .icon-neo path{stroke:url(#my-svg-gradient);filter:drop-shadow( 1px 2px 2px rgba(185,185,185,1));}#my-svg :root{--mermaid-font-family:"trebuchet ms",verdana,arial,sans-serif;}</style><g/><text class="venn-title" font-size="16px" text-anchor="middle" dominant-baseline="middle" x="50%" y="16" style="fill: rgb(199, 113, 0);">"Три условия бага"</text><g transform="translate(0, 24)"><g class="venn-area venn-circle venn-set-0" data-venn-sets="X"><path d="M 319.1607358702014 283.00808994735337 &#10;m -127.9919100526466 0 &#10;a 127.9919100526466 127.9919100526466 0 1 0 255.9838201052932 0 &#10;a 127.9919100526466 127.9919100526466 0 1 0 -255.9838201052932 0" style="fill-opacity: 0.3; fill: rgb(34, 34, 34); stroke: rgb(85, 85, 85); stroke-width: 2; stroke-opacity: 0.95;"/><text class="label" text-anchor="middle" dy=".35em" x="276" y="307" style="fill: rgb(136, 136, 136); font-size: 24px;"><tspan x="276" y="307" dy="0.35em">XFS</tspan></text></g><g class="venn-area venn-circle venn-set-1" data-venn-sets="I"><path d="M 480.8392641297986 283.00808994735337 &#10;m -127.9919100526466 0 &#10;a 127.9919100526466 127.9919100526466 0 1 0 255.9838201052932 0 &#10;a 127.9919100526466 127.9919100526466 0 1 0 -255.9838201052932 0" style="fill-opacity: 0.3; fill: rgb(34, 34, 34); stroke: rgb(85, 85, 85); stroke-width: 2; stroke-opacity: 0.95;"/><text class="label" text-anchor="middle" dy=".35em" x="523" y="307" style="fill: rgb(136, 136, 136); font-size: 24px;"><tspan x="523" y="307" dy="0.35em">init_on_free</tspan></text></g><g class="venn-area venn-circle venn-set-2" data-venn-sets="P"><path d="M 399.9989648005297 142.99191005264657 &#10;m -127.9919100526466 0 &#10;a 127.9919100526466 127.9919100526466 0 1 0 255.9838201052932 0 &#10;a 127.9919100526466 127.9919100526466 0 1 0 -255.9838201052932 0" style="fill-opacity: 0.9; fill: rgb(58, 16, 16); stroke: rgb(255, 68, 68); stroke-width: 2; stroke-opacity: 0.95;"/><text class="label" text-anchor="middle" dy=".35em" x="399" y="93" style="fill: rgb(255, 68, 68); font-size: 24px;"><tspan x="399" y="93" dy="0.35em">Давление</tspan></text></g><g class="venn-area venn-intersection" data-venn-sets="I_X"><path d="M 400 382.23985106181425 &#10;A 127.9919100526466 127.9919100526466 0 0 1 400 183.7763288328925 &#10;A 127.9919100526466 127.9919100526466 0 0 1 400 382.23985106181425" style="fill-opacity: 0; fill: transparent;"/><text class="label" text-anchor="middle" dy=".35em" x="399" y="312" style="fill: rgb(255, 255, 255); font-size: 24px;"><tspan x="399" y="312" dy="0.35em"/></text></g><g class="venn-area venn-intersection" data-venn-sets="I_P"><path d="M 354.4821131243596 262.61692939397966 &#10;A 127.9919100526466 127.9919100526466 0 0 1 526.3561158059687 163.38307060602028 &#10;A 127.9919100526466 127.9919100526466 0 0 1 354.4821131243596 262.61692939397966" style="fill-opacity: 0; fill: transparent;"/><text class="label" text-anchor="middle" dy=".35em" x="466" y="198" style="fill: rgb(255, 255, 255); font-size: 24px;"><tspan x="466" y="198" dy="0.35em"/></text></g><g class="venn-area venn-intersection" data-venn-sets="P_X"><path d="M 273.6419335748838 163.38381282717776 &#10;A 127.9919100526466 127.9919100526466 0 0 1 445.5177670958473 262.6161871728222 &#10;A 127.9919100526466 127.9919100526466 0 0 1 273.6419335748838 163.38381282717776" style="fill-opacity: 0; fill: transparent;"/><text class="label" text-anchor="middle" dy=".35em" x="333" y="198" style="fill: rgb(255, 255, 255); font-size: 24px;"><tspan x="333" y="198" dy="0.35em"/></text></g><g class="venn-area venn-intersection" data-venn-sets="I_P_X"><path d="M 354.4821131243596 262.61692939397966 &#10;A 127.9919100526466 127.9919100526466 0 0 1 400 183.7763288328925 &#10;A 127.9919100526466 127.9919100526466 0 0 1 445.5177670958473 262.6161871728222 &#10;A 127.9919100526466 127.9919100526466 0 0 1 354.4821131243596 262.61692939397966" style="fill-opacity: 0; fill: transparent;"/><text class="label" text-anchor="middle" dy=".35em" x="400" y="236" style="fill: rgb(255, 255, 255); font-size: 24px;"><tspan x="400" y="236" dy="0.35em"/></text></g></g></svg>